<?xml version="1.0" standalone="no"?>
<!DOCTYPE svg PUBLIC "-//W3C//DTD SVG 20010904//EN"
 "http://www.w3.org/TR/2001/REC-SVG-20010904/DTD/svg10.dtd">
<svg version="1.0" xmlns="http://www.w3.org/2000/svg"
 width="225.000000pt" height="225.000000pt" viewBox="0 0 225.000000 225.000000"
 preserveAspectRatio="xMidYMid meet">

<g transform="translate(0.000000,225.000000) scale(0.100000,-0.100000)"
fill="#000000" stroke="none">
<path d="M1065 1575 c-93 -68 -259 -188 -367 -267 -108 -79 -199 -152 -202
-163 -11 -39 6 -62 90 -118 46 -32 84 -55 84 -51 0 4 -8 12 -17 19 -17 13 -28
50 -12 39 5 -3 7 -9 4 -14 -3 -4 2 -11 11 -14 24 -9 28 -7 14 9 -10 12 -10 15
3 15 8 0 17 -4 19 -10 5 -15 592 -30 606 -14 4 4 1 4 -5 0 -7 -4 -13 -2 -13 3
0 17 28 13 38 -5 6 -11 12 -13 16 -6 8 13 -33 44 -47 35 -6 -3 -7 -1 -3 5 14
23 -48 40 -164 44 -128 5 -194 25 -188 55 5 26 66 43 203 57 l120 12 100 70
c55 38 114 78 132 89 39 23 58 56 50 87 -4 13 -57 74 -120 136 -101 100 -118
112 -148 111 -27 0 -68 -25 -204 -124z"/>
<path d="M1353 985 c0 -8 4 -12 9 -9 5 3 19 -2 31 -13 20 -17 21 -17 8 0 -21
27 -48 39 -48 22z"/>
<path d="M695 980 c3 -5 8 -10 11 -10 2 0 4 5 4 10 0 6 -5 10 -11 10 -5 0 -7
-4 -4 -10z"/>
<path d="M687 959 c7 -7 15 -10 18 -7 3 3 -2 9 -12 12 -14 6 -15 5 -6 -5z"/>
</g>
</svg>
